<?xml version="1.0" encoding="UTF-8"?> <svg xmlns="http://www.w3.org/2000/svg" width="50" height="61" viewBox="0 0 50 61" fill="none"> <rect x="10" y="2" width="23" height="22" rx="11" fill="#F4F6FA"></rect> <path d="M40.9993 48.0001H2C2.0007 39.0002 6.5 31 21.4993 28.5001C33.0025 26.5828 39.3326 41.0001 40.9993 48.0001Z" fill="#F4F6FA"></path> <rect x="22" y="33.5" width="27" height="27" rx="13.5" fill="#7FC8BC"></rect> <path d="M40.5049 49.2128H1.89109C1.65476 49.2128 1.4281 49.1189 1.26099 48.9518C1.09388 48.7847 1 48.558 1 48.3217C1 37.0346 10.0594 27.8267 21.198 27.8267C32.3366 27.8267 41.396 37.0227 41.396 48.3217C41.396 48.558 41.3021 48.7847 41.135 48.9518C40.9679 49.1189 40.7413 49.2128 40.5049 49.2128ZM2.80594 47.4306H39.596C39.1386 37.5217 31.0594 29.6088 21.1802 29.6088C11.301 29.6088 3.26337 37.5217 2.80594 47.4306Z" fill="#333333"></path> <path fill-rule="evenodd" clip-rule="evenodd" d="M40.5049 49.7128H1.89109C1.52215 49.7128 1.16832 49.5662 0.90744 49.3054C0.646559 49.0445 0.5 48.6906 0.5 48.3217C0.5 36.7656 9.77617 27.3267 21.198 27.3267C32.6197 27.3267 41.896 36.7535 41.896 48.3217C41.896 48.6907 41.7495 49.0445 41.4886 49.3054C41.2277 49.5662 40.8739 49.7128 40.5049 49.7128ZM39.596 47.4306C39.5883 47.2634 39.5784 47.0967 39.5664 46.9306C38.8654 37.2569 30.8927 29.6088 21.1802 29.6088C11.4677 29.6088 3.53521 37.2569 2.83555 46.9306C2.82354 47.0967 2.81366 47.2634 2.80594 47.4306H39.596ZM3.33689 46.9306H39.065C38.3652 37.5272 30.6102 30.1088 21.1802 30.1088C11.7515 30.1088 4.03536 37.5258 3.33689 46.9306ZM1.89109 49.2128H40.5049C40.7413 49.2128 40.9679 49.1189 41.135 48.9518C41.3022 48.7847 41.396 48.558 41.396 48.3217C41.396 37.0227 32.3366 27.8267 21.198 27.8267C10.0594 27.8267 1 37.0346 1 48.3217C1 48.558 1.09388 48.7847 1.26099 48.9518C1.4281 49.1189 1.65476 49.2128 1.89109 49.2128Z" fill="#333333"></path> <path d="M21.4245 25.4505C18.9571 25.4505 16.5451 24.7188 14.4936 23.348C12.4421 21.9772 10.8431 20.0289 9.89885 17.7493C8.95462 15.4698 8.70757 12.9614 9.18893 10.5415C9.67029 8.12149 10.8584 5.89862 12.6031 4.15392C14.3478 2.40923 16.5707 1.22107 18.9907 0.739714C21.4106 0.258354 23.919 0.505405 26.1985 1.44963C28.4781 2.39385 30.4265 3.99283 31.7973 6.04438C33.1681 8.09592 33.8997 10.5079 33.8997 12.9753C33.8997 16.2839 32.5854 19.457 30.2458 21.7966C27.9062 24.1361 24.7331 25.4505 21.4245 25.4505V25.4505ZM21.4245 2.28218C19.3096 2.28218 17.2422 2.90932 15.4837 4.08429C13.7253 5.25926 12.3547 6.92929 11.5454 8.88319C10.736 10.8371 10.5243 12.9871 10.9369 15.0614C11.3495 17.1356 12.3679 19.0409 13.8633 20.5364C15.3588 22.0318 17.2641 23.0503 19.3384 23.4629C21.4126 23.8755 23.5626 23.6637 25.5165 22.8544C27.4704 22.045 29.1405 20.6745 30.3154 18.916C31.4904 17.1575 32.1175 15.0901 32.1175 12.9753C32.1175 10.1393 30.9909 7.41945 28.9856 5.41411C26.9803 3.40877 24.2604 2.28218 21.4245 2.28218V2.28218Z" fill="#333333"></path> <path fill-rule="evenodd" clip-rule="evenodd" d="M21.4245 25.9505C18.8582 25.9505 16.3496 25.1895 14.2158 23.7638C12.082 22.338 10.419 20.3116 9.43691 17.9407C8.45484 15.5697 8.19789 12.9609 8.69854 10.4439C9.19919 7.92696 10.435 5.61499 12.2496 3.80037C14.0642 1.98575 16.3762 0.749974 18.8931 0.249322C21.4101 -0.251331 24.019 0.00562191 26.3899 0.987688C28.7608 1.96975 30.7873 3.63282 32.213 5.76659C33.6387 7.90036 34.3997 10.409 34.3997 12.9753C34.3997 16.4165 33.0327 19.7168 30.5993 22.1501C28.166 24.5835 24.8657 25.9505 21.4245 25.9505ZM21.4245 2.78218C19.4085 2.78218 17.4377 3.38 15.7615 4.50003C14.0853 5.62005 12.7788 7.21199 12.0073 9.07453C11.2358 10.9371 11.034 12.9866 11.4273 14.9638C11.8206 16.9411 12.7914 18.7573 14.2169 20.1828C15.6424 21.6084 17.4586 22.5792 19.4359 22.9725C21.4132 23.3658 23.4626 23.1639 25.3252 22.3924C27.1877 21.6209 28.7797 20.3145 29.8997 18.6382C31.0197 16.962 31.6175 14.9913 31.6175 12.9753C31.6175 10.2719 30.5436 7.67923 28.6321 5.76766C26.7205 3.85609 24.1278 2.78218 21.4245 2.78218ZM14.4936 23.348C16.5451 24.7188 18.9571 25.4505 21.4245 25.4505C24.7331 25.4505 27.9062 24.1361 30.2458 21.7966C32.5854 19.457 33.8997 16.2839 33.8997 12.9753C33.8997 10.5079 33.1681 8.09592 31.7973 6.04438C30.4265 3.99283 28.4781 2.39385 26.1985 1.44963C23.919 0.505406 21.4106 0.258354 18.9907 0.739714C16.5707 1.22107 14.3478 2.40923 12.6031 4.15392C10.8584 5.89862 9.67029 8.12149 9.18893 10.5415C8.70757 12.9614 8.95462 15.4698 9.89885 17.7493C10.8431 20.0289 12.4421 21.9772 14.4936 23.348ZM15.4837 4.08429C17.2422 2.90932 19.3096 2.28218 21.4245 2.28218C24.2604 2.28218 26.9803 3.40877 28.9856 5.41411C30.9909 7.41945 32.1175 10.1393 32.1175 12.9753C32.1175 15.0901 31.4904 17.1575 30.3154 18.916C29.1405 20.6745 27.4704 22.045 25.5165 22.8544C23.5626 23.6637 21.4126 23.8755 19.3384 23.4629C17.2641 23.0503 15.3588 22.0318 13.8633 20.5364C12.3679 19.0409 11.3495 17.1356 10.9369 15.0614C10.5243 12.9871 10.736 10.8371 11.5454 8.88319C12.3547 6.92929 13.7253 5.25926 15.4837 4.08429Z" fill="#333333"></path> <path d="M21.1985 36.3037C17.0947 36.3083 13.0666 35.1996 9.54305 33.0958C9.35334 32.9685 9.21977 32.7733 9.16992 32.5503C9.12006 32.3274 9.15774 32.0938 9.27516 31.8978C9.39259 31.7019 9.58079 31.5585 9.80089 31.4973C10.021 31.4361 10.2562 31.4618 10.4579 31.5691C13.7058 33.5059 17.4169 34.5285 21.1985 34.5285C24.98 34.5285 28.6912 33.5059 31.9391 31.5691C32.0394 31.5018 32.1524 31.4555 32.2712 31.4333C32.39 31.411 32.5121 31.4131 32.63 31.4394C32.748 31.4658 32.8593 31.5159 32.9573 31.5867C33.0553 31.6574 33.1378 31.7474 33.1999 31.851C33.2621 31.9547 33.3024 32.0699 33.3186 32.1897C33.3348 32.3094 33.3265 32.4313 33.2941 32.5477C33.2617 32.6641 33.206 32.7728 33.1304 32.867C33.0547 32.9612 32.9606 33.0391 32.8539 33.0958C29.3304 35.1996 25.3023 36.3083 21.1985 36.3037V36.3037Z" fill="#333333"></path> <path fill-rule="evenodd" clip-rule="evenodd" d="M9.27541 33.5184L9.26446 33.511C8.96832 33.3123 8.75979 33.0075 8.68197 32.6594C8.60414 32.3114 8.66296 31.9468 8.84627 31.6408C9.02958 31.3349 9.32339 31.1111 9.66699 31.0156C10.0106 30.9201 10.3778 30.9602 10.6926 31.1276L10.7035 31.1334L10.714 31.1397C13.8844 33.0303 17.5071 34.0285 21.1985 34.0285C24.886 34.0285 28.5049 33.0324 31.6729 31.1457C31.8265 31.045 31.9985 30.9757 32.179 30.9418C32.3644 30.907 32.555 30.9103 32.7391 30.9515C32.9233 30.9927 33.0971 31.0709 33.25 31.1813C33.403 31.2918 33.5319 31.4322 33.6288 31.594C33.7258 31.7559 33.7888 31.9357 33.8141 32.1227C33.8394 32.3097 33.8264 32.4998 33.7758 32.6816C33.7253 32.8634 33.6383 33.033 33.5202 33.1801C33.4049 33.3236 33.2624 33.4428 33.1008 33.5308C29.502 35.6772 25.3888 36.8083 21.1985 36.8037C17.0045 36.8083 12.8877 35.6752 9.28672 33.5251L9.27541 33.5184ZM21.1985 36.3037L21.1979 36.8037C21.1981 36.8037 21.1983 36.8037 21.1985 36.8037C21.1987 36.8037 21.1989 36.8037 21.199 36.8037L21.1985 36.3037ZM9.54305 33.0958C9.35334 32.9685 9.21977 32.7733 9.16992 32.5503C9.12007 32.3274 9.15774 32.0938 9.27517 31.8978C9.39259 31.7019 9.58079 31.5585 9.80089 31.4973C10.021 31.4361 10.2562 31.4618 10.4579 31.5691C13.7058 33.5059 17.417 34.5285 21.1985 34.5285C24.98 34.5285 28.6912 33.5059 31.9391 31.5691C32.0394 31.5018 32.1525 31.4555 32.2712 31.4333C32.39 31.411 32.5121 31.4131 32.63 31.4394C32.748 31.4658 32.8593 31.5159 32.9573 31.5867C33.0553 31.6574 33.1378 31.7474 33.1999 31.851C33.2621 31.9547 33.3024 32.0699 33.3186 32.1897C33.3348 32.3094 33.3265 32.4313 33.2941 32.5477C33.2617 32.6641 33.206 32.7728 33.1304 32.867C33.0547 32.9612 32.9606 33.0391 32.8539 33.0958C29.3304 35.1996 25.3023 36.3083 21.1985 36.3037C17.0947 36.3083 13.0666 35.1996 9.54305 33.0958Z" fill="#333333"></path> <path d="M32.3544 10.213C31.0947 10.2548 29.8405 10.0304 28.6735 9.55439C27.5065 9.07839 26.4531 8.3615 25.5821 7.45059C24.2353 8.21444 22.8011 8.81283 21.3108 9.23276C17.4613 10.2842 14.0217 9.74365 11.3603 7.67039C11.1736 7.52544 11.0521 7.31226 11.0226 7.07774C10.9931 6.84323 11.0579 6.60659 11.2029 6.41989C11.3478 6.23319 11.561 6.11172 11.7955 6.08219C12.03 6.05267 12.2667 6.11752 12.4534 6.26247C17.7999 10.4209 25.2197 5.61494 25.291 5.56148C25.3896 5.49537 25.5005 5.44965 25.6171 5.427C25.7336 5.40435 25.8536 5.40523 25.9698 5.42958C26.086 5.45393 26.1962 5.50127 26.2939 5.56881C26.3915 5.63634 26.4747 5.72272 26.5385 5.82286C26.6039 5.92385 28.3207 8.44861 32.3425 8.44861C32.5788 8.44861 32.8055 8.54249 32.9726 8.7096C33.1397 8.87671 33.2336 9.10336 33.2336 9.33969C33.2336 9.57603 33.1397 9.80268 32.9726 9.96979C32.8055 10.1369 32.5788 10.2308 32.3425 10.2308L32.3544 10.213Z" fill="#333333"></path> <path fill-rule="evenodd" clip-rule="evenodd" d="M31.7535 10.2128C31.9412 10.2191 32.1293 10.2196 32.3175 10.2141C32.3258 10.2139 32.3342 10.2136 32.3425 10.2133C32.3464 10.2132 32.3504 10.2131 32.3544 10.213L32.3425 10.2308C32.3466 10.2308 32.3508 10.2308 32.355 10.2307C32.3633 10.2306 32.3716 10.2303 32.3799 10.23C32.6026 10.2206 32.8143 10.1281 32.9726 9.96979C33.0548 9.88756 33.1193 9.79092 33.1636 9.6858C33.2094 9.57729 33.2336 9.45974 33.2336 9.33969C33.2336 9.10336 33.1397 8.87671 32.9726 8.7096C32.8055 8.54249 32.5788 8.44861 32.3425 8.44861C28.3207 8.44861 26.6039 5.92385 26.5385 5.82286C26.4747 5.72272 26.3915 5.63634 26.2939 5.56881C26.1962 5.50127 26.086 5.45393 25.9698 5.42958C25.8536 5.40523 25.7336 5.40435 25.6171 5.427C25.5005 5.44965 25.3896 5.49537 25.291 5.56148C25.2197 5.61494 17.7999 10.4209 12.4534 6.26247C12.2667 6.11752 12.03 6.05267 11.7955 6.08219C11.561 6.11172 11.3478 6.23319 11.2029 6.41989C11.0579 6.60659 10.9931 6.84323 11.0226 7.07774C11.0521 7.31226 11.1736 7.52544 11.3603 7.67039C14.0217 9.74366 17.4613 10.2842 21.3108 9.23276C22.8011 8.81283 24.2353 8.21444 25.5821 7.45059C26.4531 8.3615 27.5065 9.07839 28.6735 9.55439C29.6547 9.95462 30.6976 10.177 31.7535 10.2128ZM25.4944 8.07087C26.3578 8.90271 27.3724 9.56366 28.4846 10.0174C29.4257 10.4012 30.4205 10.6301 31.4305 10.6971L31.4081 10.7308H32.3425C32.7114 10.7308 33.0653 10.5842 33.3261 10.3233C33.587 10.0625 33.7336 9.70863 33.7336 9.33969C33.7336 8.97076 33.587 8.61693 33.3261 8.35605C33.0653 8.09517 32.7114 7.94861 32.3425 7.94861C30.4435 7.94861 29.1059 7.35449 28.2394 6.76107C27.8041 6.46302 27.4854 6.16336 27.2738 5.93551C27.1681 5.82166 27.0895 5.72611 27.0368 5.65821C26.9868 5.5938 26.9612 5.55562 26.9585 5.55158C26.8591 5.39635 26.7299 5.2624 26.5782 5.15755C26.4258 5.05212 26.2538 4.97822 26.0723 4.94021C25.8909 4.90219 25.7037 4.90083 25.5217 4.93618C25.3397 4.97154 25.1667 5.04292 25.0127 5.14611L25.0016 5.15351L24.991 5.16148C24.9914 5.16119 24.9894 5.16244 24.9852 5.16514C24.8706 5.23779 23.0971 6.36253 20.7192 7.00894C18.2546 7.67893 15.2539 7.80721 12.7603 5.86779L12.76 5.86752C12.4686 5.64125 12.0992 5.54002 11.7331 5.58611C11.367 5.6322 11.0342 5.82182 10.8079 6.11327C10.5817 6.40472 10.4804 6.77411 10.5265 7.1402C10.5726 7.50601 10.762 7.83857 11.053 8.06483C13.8623 10.2533 17.4723 10.7995 21.4426 9.7151L21.4426 9.71511L21.4464 9.71402C22.8528 9.31774 24.2104 8.76657 25.4944 8.07087Z" fill="#333333"></path> </svg> 