<?xml version="1.0" encoding="UTF-8"?> <svg xmlns="http://www.w3.org/2000/svg" width="56" height="53" viewBox="0 0 56 53" fill="none"> <rect y="7.5" width="35" height="35" rx="17.5" fill="#7FC8BC"></rect> <path d="M54.4886 18.8262H5.91691C5.41016 18.8262 5 19.2363 5 19.7431V24.8173C5 25.0618 5.0978 25.2971 5.27202 25.4689C5.44623 25.6412 5.68952 25.7311 5.92669 25.7342L23.5252 25.5489V31.5419L5.2494 50.9546C4.99878 51.2212 4.93031 51.6111 5.07519 51.9467C5.22006 52.2829 5.55076 52.4999 5.91691 52.4999H11.9832C12.1788 52.4999 12.3695 52.437 12.5272 52.3208L29.0566 40.1302H38.6194V51.583C38.6194 52.0892 39.0301 52.4999 39.5363 52.4999H46.2749C46.7811 52.4999 47.1918 52.0892 47.1918 51.583V34.0634C47.1918 33.5572 46.7811 33.1464 46.2749 33.1464H36.95V25.7342H54.4886C54.9947 25.7342 55.4055 25.324 55.4055 24.8173V19.7431C55.4055 19.2363 54.9954 18.8262 54.4886 18.8262ZM53.5717 23.9003H36.0331C35.5269 23.9003 35.1162 24.3105 35.1162 24.8173V34.0634C35.1162 34.5695 35.5269 34.9803 36.0331 34.9803H45.358V50.6661H40.4532V39.2133C40.4532 38.7072 40.0424 38.2964 39.5363 38.2964H28.7553C28.5597 38.2964 28.3689 38.3594 28.2112 38.4755L11.6818 50.6661H8.03986L25.109 32.5333C25.2692 32.3634 25.3584 32.1385 25.3584 31.905V24.6223C25.3584 24.3777 25.2606 24.1424 25.0864 23.9706C24.9122 23.7983 24.6457 23.7066 24.4317 23.7053L6.83321 23.8906V20.66H53.5711V23.9003H53.5717Z" fill="#333333"></path> <path fill-rule="evenodd" clip-rule="evenodd" d="M5.92669 25.7342C5.68951 25.7311 5.44623 25.6412 5.27202 25.4689C5.0978 25.2971 5 25.0618 5 24.8173V19.7431C5 19.2363 5.41016 18.8262 5.91691 18.8262H54.4886C54.9954 18.8262 55.4055 19.2363 55.4055 19.7431V24.8173C55.4055 25.324 54.9947 25.7342 54.4886 25.7342H36.95V33.1464H46.2749C46.7811 33.1464 47.1918 33.5572 47.1918 34.0634V51.583C47.1918 52.0892 46.7811 52.4999 46.2749 52.4999H39.5363C39.0301 52.4999 38.6194 52.0892 38.6194 51.583V40.1302H29.0566L12.5272 52.3208C12.3695 52.437 12.1788 52.4999 11.9832 52.4999H5.91691C5.55076 52.4999 5.22006 52.2829 5.07519 51.9467C4.93031 51.6111 4.99878 51.2212 5.2494 50.9546L23.5252 31.5419V25.5489L5.92669 25.7342ZM23.0252 26.0542L5.92024 26.2343C5.56841 26.2297 5.19682 26.0976 4.92071 25.8247C4.65075 25.5583 4.5 25.1946 4.5 24.8173V19.7431C4.5 18.9602 5.13402 18.3262 5.91691 18.3262H54.4886C55.2715 18.3262 55.9055 18.9602 55.9055 19.7431V24.8173C55.9055 25.6004 55.2707 26.2342 54.4886 26.2342H37.45V32.6464H46.2749C47.0572 32.6464 47.6918 33.2811 47.6918 34.0634V51.583C47.6918 52.3653 47.0572 52.9999 46.2749 52.9999H39.5363C38.754 52.9999 38.1194 52.3653 38.1194 51.583V40.6302H29.2211L12.824 52.7232C12.5809 52.9023 12.2861 52.9999 11.9832 52.9999H5.91691C5.35169 52.9999 4.84012 52.6647 4.616 52.1446C4.39222 51.6259 4.49818 51.0236 4.88515 50.6121L23.0252 31.3435V26.0542ZM28.2112 38.4755C28.3689 38.3594 28.5597 38.2964 28.7553 38.2964H39.5363C40.0424 38.2964 40.4532 38.7072 40.4532 39.2133V50.6661H45.358V34.9803H36.0331C35.5269 34.9803 35.1162 34.5695 35.1162 34.0634V24.8173C35.1162 24.3105 35.5269 23.9003 36.0331 23.9003H53.5711V20.66H6.83321V23.8906L24.4317 23.7053C24.6457 23.7066 24.9122 23.7983 25.0864 23.9706C25.2606 24.1424 25.3584 24.3777 25.3584 24.6223V31.905C25.3584 32.1385 25.2692 32.3634 25.109 32.5333L8.03986 50.6661H11.6818L28.2112 38.4755ZM11.5174 50.1661L27.9145 38.0731C28.1576 37.8941 28.4523 37.7964 28.7553 37.7964H39.5363C40.3186 37.7964 40.9532 38.431 40.9532 39.2133V50.1661H44.858V35.4803H36.0331C35.2508 35.4803 34.6162 34.8456 34.6162 34.0634V24.8173C34.6162 24.0341 35.251 23.4003 36.0331 23.4003H53.0711V21.16H7.33321V23.3853L24.4346 23.2053C24.7618 23.2072 25.1588 23.3393 25.4375 23.6146C25.7076 23.8809 25.8584 24.2448 25.8584 24.6223V31.905C25.8584 32.2658 25.7206 32.6133 25.4731 32.8761L9.19721 50.1661H11.5174Z" fill="#333333"></path> <path d="M30.2044 13.6509C33.8304 13.6509 36.7798 10.7009 36.7798 7.07546C36.7798 3.45 33.8304 0.5 30.2044 0.5C26.5789 0.5 23.6289 3.45 23.6289 7.07546C23.6289 10.7009 26.5789 13.6509 30.2044 13.6509ZM30.2044 2.33382C32.8188 2.33382 34.946 4.46043 34.946 7.07546C34.946 9.69048 32.8194 11.8171 30.2044 11.8171C27.5893 11.8171 25.4627 9.69048 25.4627 7.07546C25.4627 4.46043 27.59 2.33382 30.2044 2.33382Z" fill="#333333"></path> <path fill-rule="evenodd" clip-rule="evenodd" d="M37.2798 7.07546C37.2798 10.977 34.1066 14.1509 30.2044 14.1509C26.3028 14.1509 23.1289 10.9771 23.1289 7.07546C23.1289 3.17386 26.3028 0 30.2044 0C34.1066 0 37.2798 3.17389 37.2798 7.07546ZM34.446 7.07546C34.446 4.73662 32.5427 2.83382 30.2044 2.83382C27.8661 2.83382 25.9627 4.73662 25.9627 7.07546C25.9627 9.41434 27.8655 11.3171 30.2044 11.3171C32.5432 11.3171 34.446 9.41434 34.446 7.07546ZM36.7798 7.07546C36.7798 10.7009 33.8304 13.6509 30.2044 13.6509C26.5789 13.6509 23.6289 10.7009 23.6289 7.07546C23.6289 3.45 26.5789 0.5 30.2044 0.5C33.8304 0.5 36.7798 3.45 36.7798 7.07546ZM34.946 7.07546C34.946 4.46043 32.8188 2.33382 30.2044 2.33382C27.59 2.33382 25.4627 4.46043 25.4627 7.07546C25.4627 9.69048 27.5893 11.8171 30.2044 11.8171C32.8194 11.8171 34.946 9.69048 34.946 7.07546Z" fill="#333333"></path> </svg> 