<?xml version="1.0" encoding="UTF-8"?> <svg xmlns="http://www.w3.org/2000/svg" width="50" height="45" viewBox="0 0 50 45" fill="none"> <g clip-path="url(#clip0_101_365)"> <rect x="1" width="33" height="43" fill="#F4F6FA"></rect> <rect x="26.7676" y="17.0234" width="19.1918" height="18.4823" rx="9.24114" fill="#7FC8BC"></rect> <path d="M5.88281 34.4924C5.88281 37.4075 8.34553 39.7797 11.3731 39.7797C14.4007 39.7797 16.8634 37.4075 16.8634 34.4924C16.8634 31.5773 14.4007 29.2051 11.3731 29.2051C8.34553 29.2051 5.88281 31.5768 5.88281 34.4924ZM15.0588 34.4924C15.0588 36.4493 13.4051 38.0418 11.3731 38.0418C9.34109 38.0418 7.68744 36.4493 7.68744 34.4924C7.68744 32.5355 9.34109 30.943 11.3731 30.943C13.4051 30.943 15.0588 32.5355 15.0588 34.4924Z" fill="#333333"></path> <path fill-rule="evenodd" clip-rule="evenodd" d="M11.3742 40.2657C8.06771 40.2657 5.37891 37.6756 5.37891 34.492C5.37891 31.3077 8.06774 28.7183 11.3742 28.7183C14.6808 28.7183 17.3696 31.3083 17.3696 34.492C17.3696 37.6756 14.6808 40.2657 11.3742 40.2657ZM11.3742 37.555C13.1273 37.555 14.5549 36.1802 14.5549 34.492C14.5549 32.8037 13.1273 31.4289 11.3742 31.4289C9.62116 31.4289 8.19363 32.8037 8.19363 34.492C8.19363 36.1802 9.62116 37.555 11.3742 37.555ZM11.3742 39.7793C8.34667 39.7793 5.88395 37.407 5.88395 34.492C5.88395 31.5763 8.34667 29.2046 11.3742 29.2046C14.4018 29.2046 16.8645 31.5769 16.8645 34.492C16.8645 37.407 14.4018 39.7793 11.3742 39.7793ZM11.3742 38.0414C13.4063 38.0414 15.0599 36.4489 15.0599 34.492C15.0599 32.5351 13.4063 30.9426 11.3742 30.9426C9.34223 30.9426 7.68858 32.5351 7.68858 34.492C7.68858 36.4489 9.34223 38.0414 11.3742 38.0414Z" fill="#333333"></path> <path d="M49.1944 14.7474C48.8227 14.4282 48.253 14.4589 47.9203 14.817L34.8145 28.9538L28.0676 22.4563C27.7151 22.1168 27.1442 22.1168 26.7917 22.4563C26.4392 22.7957 26.4392 23.3455 26.7917 23.685L34.2142 30.8325C34.3838 30.9958 34.613 31.0868 34.8524 31.0868C34.8608 31.0868 34.8692 31.0868 34.8777 31.0862C35.1255 31.0792 35.3601 30.975 35.5255 30.7965L49.2672 15.9738C49.5986 15.6164 49.5662 15.0666 49.1944 14.7474Z" fill="#333333"></path> <path fill-rule="evenodd" clip-rule="evenodd" d="M47.5432 14.4922C48.0615 13.9343 48.95 13.8862 49.5297 14.384C50.1096 14.8819 50.1605 15.7393 49.6431 16.2973C49.6431 16.2973 49.6431 16.2973 49.6431 16.2973L35.9015 31.12C35.6447 31.397 35.2821 31.5589 34.8996 31.5717C34.8777 31.5728 34.8594 31.5727 34.853 31.5727L34.8516 31.5727C34.4788 31.5727 34.121 31.4309 33.8562 31.176C33.8562 31.1759 33.8562 31.176 33.8562 31.176L26.4338 24.0285C25.8841 23.4991 25.884 22.6413 26.4338 22.1119C26.9835 21.5825 27.8742 21.5825 28.4239 22.1119L34.7929 28.2455L47.5432 14.4922ZM34.8137 28.9533L28.0668 22.4558C27.7143 22.1164 27.1434 22.1164 26.7909 22.4558C26.4384 22.7953 26.4384 23.3451 26.7909 23.6845L34.2133 30.832C34.383 30.9954 34.6122 31.0863 34.8516 31.0863C34.86 31.0863 34.8684 31.0863 34.8768 31.0858C35.1247 31.0788 35.3593 30.9745 35.5247 30.7961L49.2664 15.9734C49.5978 15.616 49.5653 15.0662 49.1936 14.747C48.8218 14.4278 48.2522 14.4585 47.9195 14.8165L34.8137 28.9533Z" fill="#333333"></path> <path d="M35.1632 33.2594C34.6645 33.2594 34.2609 33.6487 34.2609 34.1284V42.7757H2.31049V2.22425H34.2609V20.4301C34.2609 20.9098 34.6645 21.2991 35.1632 21.2991C35.6619 21.2991 36.0655 20.9098 36.0655 20.4301V1.35529C36.0655 0.875622 35.6619 0.486328 35.1632 0.486328H1.40818C0.909495 0.486328 0.505859 0.875622 0.505859 1.35529V43.6446C0.505859 44.1243 0.909495 44.5136 1.40818 44.5136H35.1632C35.6619 44.5136 36.0655 44.1243 36.0655 43.6446V34.1284C36.0655 33.6487 35.6619 33.2594 35.1632 33.2594Z" fill="#333333"></path> <path fill-rule="evenodd" clip-rule="evenodd" d="M33.755 34.1284C33.755 33.3803 34.3846 32.7731 35.1624 32.7731C35.9402 32.7731 36.5698 33.3803 36.5698 34.1284V43.6447C36.5698 44.3927 35.9402 45 35.1624 45H1.40736C0.629534 45 0 44.3927 0 43.6447V1.35533C0 0.607263 0.629534 0 1.40736 0H35.1624C35.9402 0 36.5698 0.607263 36.5698 1.35533V20.4301C36.5698 21.1782 35.9402 21.7855 35.1624 21.7855C34.3846 21.7855 33.755 21.1782 33.755 20.4301V2.71067H2.81472V42.2893H33.755V34.1284ZM34.2601 34.1284C34.2601 33.6487 34.6637 33.2594 35.1624 33.2594C35.6611 33.2594 36.0647 33.6487 36.0647 34.1284V43.6447C36.0647 44.1243 35.6611 44.5136 35.1624 44.5136H1.40736C0.908682 44.5136 0.505046 44.1243 0.505046 43.6447V1.35533C0.505046 0.875669 0.908682 0.486376 1.40736 0.486376H35.1624C35.6611 0.486376 36.0647 0.875669 36.0647 1.35533V20.4301C36.0647 20.9098 35.6611 21.2991 35.1624 21.2991C34.6637 21.2991 34.2601 20.9098 34.2601 20.4301V2.22429H2.30968V42.7757H34.2601V34.1284Z" fill="#333333"></path> <path d="M24.6164 12.2028C25.1151 12.2028 25.5187 11.8135 25.5187 11.3338C25.5187 10.8541 25.1151 10.4648 24.6164 10.4648H6.48825C5.98957 10.4648 5.58594 10.8541 5.58594 11.3338C5.58594 11.8135 5.98957 12.2028 6.48825 12.2028H24.6164Z" fill="#333333"></path> <path fill-rule="evenodd" clip-rule="evenodd" d="M26.0229 11.3343C26.0229 12.0824 25.3934 12.6897 24.6156 12.6897H6.48744C5.70961 12.6897 5.08008 12.0824 5.08008 11.3343C5.08008 10.5863 5.70961 9.979 6.48744 9.979H24.6156C25.3934 9.979 26.0229 10.5863 26.0229 11.3343ZM25.5179 11.3343C25.5179 11.814 25.1142 12.2033 24.6156 12.2033H6.48744C5.98876 12.2033 5.58512 11.814 5.58512 11.3343C5.58512 10.8547 5.98876 10.4654 6.48744 10.4654H24.6156C25.1142 10.4654 25.5179 10.8547 25.5179 11.3343Z" fill="#333333"></path> <path d="M25.7404 19.0648C25.7404 18.5851 25.3368 18.1958 24.8381 18.1958H6.71482C6.21614 18.1958 5.8125 18.5851 5.8125 19.0648C5.8125 19.5444 6.21614 19.9337 6.71482 19.9337H24.8381C25.3368 19.9337 25.7404 19.5444 25.7404 19.0648Z" fill="#333333"></path> <path fill-rule="evenodd" clip-rule="evenodd" d="M24.8373 17.709C25.6151 17.709 26.2447 18.3162 26.2447 19.0643C26.2447 19.8124 25.6151 20.4197 24.8373 20.4197H6.714C5.93617 20.4197 5.30664 19.8124 5.30664 19.0643C5.30664 18.3162 5.93617 17.709 6.714 17.709H24.8373ZM24.8373 18.1954C25.336 18.1954 25.7396 18.5847 25.7396 19.0643C25.7396 19.544 25.336 19.9333 24.8373 19.9333H6.714C6.21532 19.9333 5.81169 19.544 5.81169 19.0643C5.81169 18.5847 6.21532 18.1954 6.714 18.1954H24.8373Z" fill="#333333"></path> </g> <defs> <clipPath id="clip0_101_365"> <rect width="50" height="45" fill="white"></rect> </clipPath> </defs> </svg> 